# xmcd
#
# Track frame offsets: 
#        182
#        14087
#        27510
#        39950
#        52345
#        68287
#        82850
#        96567
#        109530
#        123070
#
# Disc length: 1785 seconds
#
# Revision: 4
# Processed by: cddbd v1.4PL0 Copyright (c) Steve Scherf et al.
# Submitted via: ExactAudioCopy v0.90b3
#
DISCID=7906f70a
DTITLE=Hank Williams, Jr. - Hank 22 - Disc 2
DYEAR=1900
DGENRE=Country
TTITLE0=Good Friends, Good Whiskey, Good Lovin'
TTITLE1=I'm For Love
TTITLE2=This Ain't Dallas
TTITLE3=Born To Boogie
TTITLE4=Young Country
TTITLE5=Heaven Can't Be Found
TTITLE6=Finders Are Keepers
TTITLE7=There's A Tear In My Beer (With Hank Williams, Sr.)
TTITLE8=Stoned At The Jukebox
TTITLE9=Monday Night Football Boogie
EXTD=
EXTT0=
EXTT1=
EXTT2=
EXTT3=
EXTT4=
EXTT5=
EXTT6=
EXTT7=
EXTT8=
EXTT9=
PLAYORDER=
